<svg xmlns="http://www.w3.org/2000/svg" width="4" height="361" viewBox="0 0 4 361">
  <path fill="#002FF6" d="M0,0 L0,10.0677291 L4,10.0677291 L4,0 L0,0 Z M0,20.1354582 L0,30.2031873 L4,30.2031873 L4,20.1354582 L0,20.1354582 Z M0,38.8326693 L0,48.9003984 L4,48.9003984 L4,38.8326693 L0,38.8326693 Z M0,58.9681275 L0,69.0358566 L4,69.0358566 L4,58.9681275 L0,58.9681275 Z M0,77.6653386 L0,87.7330677 L4,87.7330677 L4,77.6653386 L0,77.6653386 Z M0,97.8007968 L0,107.868526 L4,107.868526 L4,97.8007968 L0,97.8007968 Z M0,116.498008 L0,126.565737 L4,126.565737 L4,116.498008 L0,116.498008 Z M0,136.633466 L0,146.701195 L4,146.701195 L4,136.633466 L0,136.633466 Z M0,156.768924 L0,166.836653 L4,166.836653 L4,156.768924 L0,156.768924 Z M0,175.466135 L0,185.533865 L4,185.533865 L4,175.466135 L0,175.466135 Z M0,195.601594 L0,205.669323 L4,205.669323 L4,195.601594 L0,195.601594 Z M0,214.298805 L0,224.366534 L4,224.366534 L4,214.298805 L0,214.298805 Z M0,234.434263 L0,244.501992 L4,244.501992 L4,234.434263 L0,234.434263 Z M0,253.131474 L0,263.199203 L4,263.199203 L4,253.131474 L0,253.131474 Z M0,273.266932 L0,283.334661 L4,283.334661 L4,273.266932 L0,273.266932 Z M0,293.40239 L0,303.47012 L4,303.47012 L4,293.40239 L0,293.40239 Z M0,312.099602 L0,322.167331 L4,322.167331 L4,312.099602 L0,312.099602 Z M0,332.23506 L0,342.302789 L4,342.302789 L4,332.23506 L0,332.23506 Z M0,350.932271 L0,361 L4,361 L4,350.932271 L0,350.932271 Z" transform="matrix(-1 0 0 1 4 0)"/>
</svg>
