<?xml version="1.0" encoding="UTF-8"?>
<svg width="254px" height="196px" viewBox="0 0 254 196" version="1.1" xmlns="http://www.w3.org/2000/svg" xmlns:xlink="http://www.w3.org/1999/xlink">
    <!-- Generator: Sketch 47.1 (45422) - http://www.bohemiancoding.com/sketch -->
    <title>Artboard 3</title>
    <desc>Created with Sketch.</desc>
    <defs>
        <rect id="path-1" x="0" y="0" width="254" height="196"></rect>
    </defs>
    <g id="Page-1" stroke="none" stroke-width="1" fill="none" fill-rule="evenodd">
        <g id="Artboard-3">
            <g id="Group">
                <mask id="mask-2" fill="white">
                    <use xlink:href="#path-1"></use>
                </mask>
                <use id="Mask" fill="#FFFFFF" xlink:href="#path-1"></use>
                <g mask="url(#mask-2)">
                    <g transform="translate(-109.000000, -98.000000)">
                        <g id="Group-15-Copy-2" transform="translate(0.000000, 196.000000)">
                            <path d="M100.671211,1.84207818 C113.285259,-1.9789988 127.234721,-0.0165278353 142.214095,9.24315821 C166.226203,24.0870071 168.849367,64.0101886 147.520746,88.8737947 C139.360338,98.3869482 125.352671,109.049158 107.953429,119.949445 C101.772073,123.821944 95.5443795,127.475709 89.8823105,130.614494 C84.181014,133.775026 82.348224,134.786868 81.3310839,134.967535 C80.3323923,135.162165 79.2629138,134.575391 72.1179702,130.614484 C66.4554857,127.4754 60.2280816,123.82179 54.0469722,119.949445 C36.6473111,109.048895 22.6400506,98.3868391 14.4805444,88.8738913 C-6.84979649,64.0102336 -4.2266262,24.0869512 19.7870653,9.24318724 C34.7657307,-0.0165261998 48.714768,-1.97900474 61.3285985,1.84208209 C69.2335642,4.23672031 75.8069494,8.5926214 80.999798,13.7650172 C86.1926713,8.59260234 92.7660948,4.23671449 100.671211,1.84207818 Z M139.636276,13.4430904 C125.839265,4.91429674 113.342596,3.15621091 102.091538,6.56440772 C94.1933708,8.95693893 87.7117071,13.5982834 82.8164221,18.9902151 L80.9997976,20.9911437 L79.183173,18.9902151 C74.2879065,13.5983037 67.8062571,8.95693528 59.9082459,6.56440381 C48.6574426,3.15621653 36.1612505,4.91429547 22.3648639,13.4431318 C1.11637111,26.5776227 -1.27348313,62.9499566 18.2055596,85.6556533 C25.9582344,94.6942875 39.641367,105.109624 56.6497688,115.765057 C62.7531621,119.588714 68.9056282,123.198358 74.4945872,126.296682 C76.6126223,127.470847 78.5240561,128.500526 80.0002459,129.268707 C80.6235821,129.59308 81.136925,129.853755 81.492277,130.027186 C79.3364641,128.975029 81.2537378,129.821004 80.2293398,130.160412 L80.9979627,129.905749 L81.7669448,130.159318 C80.7446322,129.822214 82.6482606,128.98264 80.5077698,130.027096 C80.8631115,129.853706 81.3764706,129.593057 81.9998912,129.268668 C83.4759076,128.500642 85.3874504,127.470947 87.5057329,126.296671 C93.0942598,123.198654 99.2470007,119.588864 105.350632,115.765057 C122.358678,105.109847 136.042246,94.6943314 143.795739,85.6555471 C163.273104,62.9500217 160.883243,26.5775791 139.636276,13.4430904 Z" id="Stroke-3-Copy" fill="#002FF7" fill-rule="nonzero"></path>
                            <path d="M32.9691838,67.3038655 C36.0956377,70.0585998 39.6886431,72.8167254 43.6882186,75.3898952 C54.7787777,82.5251253 66.7740807,86.8695835 79.2341651,87.075392 C96.9767876,87.3677274 110.357436,83.2960155 120.038412,76.37146 C123.269883,74.0600712 125.838848,71.5948405 127.811254,69.1439042 C128.335254,68.4927745 128.784904,67.8816279 129.163822,67.320305 C128.525226,66.503001 127.775397,65.5988219 126.916623,64.628195 C124.240201,61.6031788 121.082592,58.5740137 117.469238,55.7485688 C107.192358,47.7126104 95.3721771,42.909921 82.1549975,42.909921 C68.8583757,42.909921 56.0608925,47.4253866 44.2429077,54.9745177 C40.0882498,57.6284437 36.3569257,60.4729992 33.1106928,63.3141255 C32.2797357,64.0413851 31.5259814,64.7292287 30.8524074,65.3680199 C31.4862535,65.9715936 32.192725,66.6197237 32.9691838,67.3038655 Z M26.6858003,62.5441359 C27.5876534,61.6614901 28.6433338,60.6817646 29.8459296,59.6292442 C33.2700934,56.6323914 37.1966941,53.638968 41.571972,50.8441135 C54.1252323,42.8253008 67.8008331,38 82.1549975,38 C96.588604,38 109.436979,43.2204577 120.523799,51.8897445 C124.38774,54.9111356 127.760227,58.1464374 130.626372,61.3858882 C131.633543,62.5242399 132.507226,63.5843647 133.245311,64.5402307 C133.69681,65.1249513 134.007973,65.5528878 134.176564,65.798035 L135,66.9953888 L134.342205,68.290002 C133.912979,69.1347673 133.045376,70.500557 131.669094,72.2107433 C129.423809,75.0007633 126.531283,77.7764888 122.924038,80.3566592 C112.370441,87.9053786 97.9473185,92.2943139 79.1521799,91.9846368 C65.6605211,91.7617893 52.8110206,87.1079579 41.0037808,79.5116436 C36.7838529,76.7967077 32.9959948,73.8890059 29.6920833,70.9779127 C28.531635,69.9554359 27.5127898,69.0036137 26.6422289,68.1460111 C26.1112739,67.6229595 25.7424109,67.241579 25.5424107,67.0254183 L24,65.3583774 L25.5477193,63.6962039 C25.7543191,63.4743261 26.1360129,63.0822141 26.6858003,62.5441359 Z" id="Stroke-7-Copy" fill="#002FF7" fill-rule="nonzero"></path>
                            <path d="M82,42.9794539 C94.95767,42.9794539 106.54576,47.8498716 116.620844,55.9991474 C120.163241,58.8644311 123.258843,61.9363065 125.882705,65.0039737 C126.797115,66.0730485 127.585532,67.0626332 128.245083,67.9461867 C128.632333,68.464959 128.885478,68.8250862 129.001767,69 L133,66.1900119 C132.834718,65.9414057 132.529664,65.5074329 132.087029,64.9144653 C131.363436,63.9451189 130.506908,62.8700436 129.519513,61.7156385 C126.709646,58.430506 123.403381,55.1495816 119.615312,52.0855854 C108.746207,43.2940619 96.150148,38 82,38 L82,42.9794539 Z" id="Stroke-17-Copy" fill="#002FF7" fill-rule="nonzero"></path>
                        </g>
                        <g id="Group-15-Copy-2">
                            <path d="M100.671211,1.84207818 C113.285259,-1.9789988 127.234721,-0.0165278353 142.214095,9.24315821 C166.226203,24.0870071 168.849367,64.0101886 147.520746,88.8737947 C139.360338,98.3869482 125.352671,109.049158 107.953429,119.949445 C101.772073,123.821944 95.5443795,127.475709 89.8823105,130.614494 C84.181014,133.775026 82.348224,134.786868 81.3310839,134.967535 C80.3323923,135.162165 79.2629138,134.575391 72.1179702,130.614484 C66.4554857,127.4754 60.2280816,123.82179 54.0469722,119.949445 C36.6473111,109.048895 22.6400506,98.3868391 14.4805444,88.8738913 C-6.84979649,64.0102336 -4.2266262,24.0869512 19.7870653,9.24318724 C34.7657307,-0.0165261998 48.714768,-1.97900474 61.3285985,1.84208209 C69.2335642,4.23672031 75.8069494,8.5926214 80.999798,13.7650172 C86.1926713,8.59260234 92.7660948,4.23671449 100.671211,1.84207818 Z M139.636276,13.4430904 C125.839265,4.91429674 113.342596,3.15621091 102.091538,6.56440772 C94.1933708,8.95693893 87.7117071,13.5982834 82.8164221,18.9902151 L80.9997976,20.9911437 L79.183173,18.9902151 C74.2879065,13.5983037 67.8062571,8.95693528 59.9082459,6.56440381 C48.6574426,3.15621653 36.1612505,4.91429547 22.3648639,13.4431318 C1.11637111,26.5776227 -1.27348313,62.9499566 18.2055596,85.6556533 C25.9582344,94.6942875 39.641367,105.109624 56.6497688,115.765057 C62.7531621,119.588714 68.9056282,123.198358 74.4945872,126.296682 C76.6126223,127.470847 78.5240561,128.500526 80.0002459,129.268707 C80.6235821,129.59308 81.136925,129.853755 81.492277,130.027186 C79.3364641,128.975029 81.2537378,129.821004 80.2293398,130.160412 L80.9979627,129.905749 L81.7669448,130.159318 C80.7446322,129.822214 82.6482606,128.98264 80.5077698,130.027096 C80.8631115,129.853706 81.3764706,129.593057 81.9998912,129.268668 C83.4759076,128.500642 85.3874504,127.470947 87.5057329,126.296671 C93.0942598,123.198654 99.2470007,119.588864 105.350632,115.765057 C122.358678,105.109847 136.042246,94.6943314 143.795739,85.6555471 C163.273104,62.9500217 160.883243,26.5775791 139.636276,13.4430904 Z" id="Stroke-3-Copy" fill="#002FF7" fill-rule="nonzero"></path>
                        </g>
                        <g id="Group-15-Copy-2" transform="translate(254.000000, 196.000000)">
                            <path d="M100.671211,1.84207818 C113.285259,-1.9789988 127.234721,-0.0165278353 142.214095,9.24315821 C166.226203,24.0870071 168.849367,64.0101886 147.520746,88.8737947 C139.360338,98.3869482 125.352671,109.049158 107.953429,119.949445 C101.772073,123.821944 95.5443795,127.475709 89.8823105,130.614494 C84.181014,133.775026 82.348224,134.786868 81.3310839,134.967535 C80.3323923,135.162165 79.2629138,134.575391 72.1179702,130.614484 C66.4554857,127.4754 60.2280816,123.82179 54.0469722,119.949445 C36.6473111,109.048895 22.6400506,98.3868391 14.4805444,88.8738913 C-6.84979649,64.0102336 -4.2266262,24.0869512 19.7870653,9.24318724 C34.7657307,-0.0165261998 48.714768,-1.97900474 61.3285985,1.84208209 C69.2335642,4.23672031 75.8069494,8.5926214 80.999798,13.7650172 C86.1926713,8.59260234 92.7660948,4.23671449 100.671211,1.84207818 Z M139.636276,13.4430904 C125.839265,4.91429674 113.342596,3.15621091 102.091538,6.56440772 C94.1933708,8.95693893 87.7117071,13.5982834 82.8164221,18.9902151 L80.9997976,20.9911437 L79.183173,18.9902151 C74.2879065,13.5983037 67.8062571,8.95693528 59.9082459,6.56440381 C48.6574426,3.15621653 36.1612505,4.91429547 22.3648639,13.4431318 C1.11637111,26.5776227 -1.27348313,62.9499566 18.2055596,85.6556533 C25.9582344,94.6942875 39.641367,105.109624 56.6497688,115.765057 C62.7531621,119.588714 68.9056282,123.198358 74.4945872,126.296682 C76.6126223,127.470847 78.5240561,128.500526 80.0002459,129.268707 C80.6235821,129.59308 81.136925,129.853755 81.492277,130.027186 C79.3364641,128.975029 81.2537378,129.821004 80.2293398,130.160412 L80.9979627,129.905749 L81.7669448,130.159318 C80.7446322,129.822214 82.6482606,128.98264 80.5077698,130.027096 C80.8631115,129.853706 81.3764706,129.593057 81.9998912,129.268668 C83.4759076,128.500642 85.3874504,127.470947 87.5057329,126.296671 C93.0942598,123.198654 99.2470007,119.588864 105.350632,115.765057 C122.358678,105.109847 136.042246,94.6943314 143.795739,85.6555471 C163.273104,62.9500217 160.883243,26.5775791 139.636276,13.4430904 Z" id="Stroke-3-Copy" fill="#002FF7" fill-rule="nonzero"></path>
                            <path d="M60.2671553,44.7498449 C60.2671553,44.7498449 56.1100519,71.3467176 80.592864,75.6206099 C105.077245,79.8945023 106,46.6488148 106,46.6488148 C106,46.6488148 94.9128218,40 82.902889,40 C70.8913869,40 60.2671553,44.7498449 60.2671553,44.7498449" id="Fill-9-Copy" fill="#002FF7"></path>
                            <path d="M67.1387384,41.6462802 C67.1387384,41.6462802 64.4830159,63 82.4099421,63 C100.33527,63 101,44.8823529 101,44.8823529 C101,44.8823529 92.3681027,41 82.4099421,41 C72.4501835,41 67.1387384,41.6462802 67.1387384,41.6462802" id="Fill-11-Copy" fill="#002FF7"></path>
                            <path d="M100,45.7721079 C100,49.7635586 96.642539,53 92.5,53 C88.3589796,53 85,49.7635586 85,45.7721079 C85,41.7806572 86.2391172,41 90.3816562,41 C94.5226767,41 100,41.7806572 100,45.7721079" id="Fill-15-Copy" fill="#FFFFFF"></path>
                            <path d="M32.9691838,67.3038655 C36.0956377,70.0585998 39.6886431,72.8167254 43.6882186,75.3898952 C54.7787777,82.5251253 66.7740807,86.8695835 79.2341651,87.075392 C96.9767876,87.3677274 110.357436,83.2960155 120.038412,76.37146 C123.269883,74.0600712 125.838848,71.5948405 127.811254,69.1439042 C128.335254,68.4927745 128.784904,67.8816279 129.163822,67.320305 C128.525226,66.503001 127.775397,65.5988219 126.916623,64.628195 C124.240201,61.6031788 121.082592,58.5740137 117.469238,55.7485688 C107.192358,47.7126104 95.3721771,42.909921 82.1549975,42.909921 C68.8583757,42.909921 56.0608925,47.4253866 44.2429077,54.9745177 C40.0882498,57.6284437 36.3569257,60.4729992 33.1106928,63.3141255 C32.2797357,64.0413851 31.5259814,64.7292287 30.8524074,65.3680199 C31.4862535,65.9715936 32.192725,66.6197237 32.9691838,67.3038655 Z M26.6858003,62.5441359 C27.5876534,61.6614901 28.6433338,60.6817646 29.8459296,59.6292442 C33.2700934,56.6323914 37.1966941,53.638968 41.571972,50.8441135 C54.1252323,42.8253008 67.8008331,38 82.1549975,38 C96.588604,38 109.436979,43.2204577 120.523799,51.8897445 C124.38774,54.9111356 127.760227,58.1464374 130.626372,61.3858882 C131.633543,62.5242399 132.507226,63.5843647 133.245311,64.5402307 C133.69681,65.1249513 134.007973,65.5528878 134.176564,65.798035 L135,66.9953888 L134.342205,68.290002 C133.912979,69.1347673 133.045376,70.500557 131.669094,72.2107433 C129.423809,75.0007633 126.531283,77.7764888 122.924038,80.3566592 C112.370441,87.9053786 97.9473185,92.2943139 79.1521799,91.9846368 C65.6605211,91.7617893 52.8110206,87.1079579 41.0037808,79.5116436 C36.7838529,76.7967077 32.9959948,73.8890059 29.6920833,70.9779127 C28.531635,69.9554359 27.5127898,69.0036137 26.6422289,68.1460111 C26.1112739,67.6229595 25.7424109,67.241579 25.5424107,67.0254183 L24,65.3583774 L25.5477193,63.6962039 C25.7543191,63.4743261 26.1360129,63.0822141 26.6858003,62.5441359 Z" id="Stroke-7-Copy" fill="#002FF7" fill-rule="nonzero"></path>
                            <path d="M30.5867775,68 C30.7409055,67.8270952 31.0660443,67.4781918 31.5548348,66.9784855 C32.3837897,66.1310181 33.3619399,65.1827766 34.4818385,64.1589391 C37.6932461,61.2229954 41.3845409,58.2835079 45.4946279,55.5410119 C57.1858304,47.739942 69.8460232,43.0737808 83,43.0737808 L83,38 C68.7998259,38 55.2709358,42.9863366 42.8523458,51.2727629 C38.5240055,54.1608906 34.6395291,57.2542142 31.2520994,60.3510815 C30.062405,61.4387279 29.0180498,62.4511501 28.1258717,63.3632526 C27.5819824,63.9192882 27.2043834,64.3244862 27,64.5537688 L30.5867775,68 Z" id="Stroke-13-Copy" fill="#002FF7" fill-rule="nonzero"></path>
                            <path d="M82,42.9794539 C94.95767,42.9794539 106.54576,47.8498716 116.620844,55.9991474 C120.163241,58.8644311 123.258843,61.9363065 125.882705,65.0039737 C126.797115,66.0730485 127.585532,67.0626332 128.245083,67.9461867 C128.632333,68.464959 128.885478,68.8250862 129.001767,69 L133,66.1900119 C132.834718,65.9414057 132.529664,65.5074329 132.087029,64.9144653 C131.363436,63.9451189 130.506908,62.8700436 129.519513,61.7156385 C126.709646,58.430506 123.403381,55.1495816 119.615312,52.0855854 C108.746207,43.2940619 96.150148,38 82,38 L82,42.9794539 Z" id="Stroke-17-Copy" fill="#002FF7" fill-rule="nonzero"></path>
                        </g>
                        <g id="Group-15-Copy-2" transform="translate(254.000000, 0.000000)">
                            <path d="M100.671211,1.84207818 C113.285259,-1.9789988 127.234721,-0.0165278353 142.214095,9.24315821 C166.226203,24.0870071 168.849367,64.0101886 147.520746,88.8737947 C139.360338,98.3869482 125.352671,109.049158 107.953429,119.949445 C101.772073,123.821944 95.5443795,127.475709 89.8823105,130.614494 C84.181014,133.775026 82.348224,134.786868 81.3310839,134.967535 C80.3323923,135.162165 79.2629138,134.575391 72.1179702,130.614484 C66.4554857,127.4754 60.2280816,123.82179 54.0469722,119.949445 C36.6473111,109.048895 22.6400506,98.3868391 14.4805444,88.8738913 C-6.84979649,64.0102336 -4.2266262,24.0869512 19.7870653,9.24318724 C34.7657307,-0.0165261998 48.714768,-1.97900474 61.3285985,1.84208209 C69.2335642,4.23672031 75.8069494,8.5926214 80.999798,13.7650172 C86.1926713,8.59260234 92.7660948,4.23671449 100.671211,1.84207818 Z M139.636276,13.4430904 C125.839265,4.91429674 113.342596,3.15621091 102.091538,6.56440772 C94.1933708,8.95693893 87.7117071,13.5982834 82.8164221,18.9902151 L80.9997976,20.9911437 L79.183173,18.9902151 C74.2879065,13.5983037 67.8062571,8.95693528 59.9082459,6.56440381 C48.6574426,3.15621653 36.1612505,4.91429547 22.3648639,13.4431318 C1.11637111,26.5776227 -1.27348313,62.9499566 18.2055596,85.6556533 C25.9582344,94.6942875 39.641367,105.109624 56.6497688,115.765057 C62.7531621,119.588714 68.9056282,123.198358 74.4945872,126.296682 C76.6126223,127.470847 78.5240561,128.500526 80.0002459,129.268707 C80.6235821,129.59308 81.136925,129.853755 81.492277,130.027186 C79.3364641,128.975029 81.2537378,129.821004 80.2293398,130.160412 L80.9979627,129.905749 L81.7669448,130.159318 C80.7446322,129.822214 82.6482606,128.98264 80.5077698,130.027096 C80.8631115,129.853706 81.3764706,129.593057 81.9998912,129.268668 C83.4759076,128.500642 85.3874504,127.470947 87.5057329,126.296671 C93.0942598,123.198654 99.2470007,119.588864 105.350632,115.765057 C122.358678,105.109847 136.042246,94.6943314 143.795739,85.6555471 C163.273104,62.9500217 160.883243,26.5775791 139.636276,13.4430904 Z" id="Stroke-3-Copy" fill="#002FF7" fill-rule="nonzero"></path>
                            <path d="M98,168.657212 C98,184.949128 89.9415471,191 79.9991956,191 C70.0584529,191 62,184.949128 62,168.657212 C62,152.365295 79.9991956,132 79.9991956,132 C79.9991956,132 98,152.365295 98,168.657212" id="Fill-19-Copy" fill="#002FF7"></path>
                        </g>
                        <g id="Group-15-Copy-5" transform="translate(127.000000, 99.000000)">
                            <path d="M100.671211,1.84207818 C113.285259,-1.9789988 127.234721,-0.0165278353 142.214095,9.24315821 C166.226203,24.0870071 168.849367,64.0101886 147.520746,88.8737947 C139.360338,98.3869482 125.352671,109.049158 107.953429,119.949445 C101.772073,123.821944 95.5443795,127.475709 89.8823105,130.614494 C84.181014,133.775026 82.348224,134.786868 81.3310839,134.967535 C80.3323923,135.162165 79.2629138,134.575391 72.1179702,130.614484 C66.4554857,127.4754 60.2280816,123.82179 54.0469722,119.949445 C36.6473111,109.048895 22.6400506,98.3868391 14.4805444,88.8738913 C-6.84979649,64.0102336 -4.2266262,24.0869512 19.7870653,9.24318724 C34.7657307,-0.0165261998 48.714768,-1.97900474 61.3285985,1.84208209 C69.2335642,4.23672031 75.8069494,8.5926214 80.999798,13.7650172 C86.1926713,8.59260234 92.7660948,4.23671449 100.671211,1.84207818 Z M139.636276,13.4430904 C125.839265,4.91429674 113.342596,3.15621091 102.091538,6.56440772 C94.1933708,8.95693893 87.7117071,13.5982834 82.8164221,18.9902151 L80.9997976,20.9911437 L79.183173,18.9902151 C74.2879065,13.5983037 67.8062571,8.95693528 59.9082459,6.56440381 C48.6574426,3.15621653 36.1612505,4.91429547 22.3648639,13.4431318 C1.11637111,26.5776227 -1.27348313,62.9499566 18.2055596,85.6556533 C25.9582344,94.6942875 39.641367,105.109624 56.6497688,115.765057 C62.7531621,119.588714 68.9056282,123.198358 74.4945872,126.296682 C76.6126223,127.470847 78.5240561,128.500526 80.0002459,129.268707 C80.6235821,129.59308 81.136925,129.853755 81.492277,130.027186 C79.3364641,128.975029 81.2537378,129.821004 80.2293398,130.160412 L80.9979627,129.905749 L81.7669448,130.159318 C80.7446322,129.822214 82.6482606,128.98264 80.5077698,130.027096 C80.8631115,129.853706 81.3764706,129.593057 81.9998912,129.268668 C83.4759076,128.500642 85.3874504,127.470947 87.5057329,126.296671 C93.0942598,123.198654 99.2470007,119.588864 105.350632,115.765057 C122.358678,105.109847 136.042246,94.6943314 143.795739,85.6555471 C163.273104,62.9500217 160.883243,26.5775791 139.636276,13.4430904 Z" id="Stroke-3-Copy" fill="#002FF7" fill-rule="nonzero"></path>
                            <path d="M60.2671553,44.7498449 C60.2671553,44.7498449 56.1100519,71.3467176 80.592864,75.6206099 C105.077245,79.8945023 106,46.6488148 106,46.6488148 C106,46.6488148 94.9128218,40 82.902889,40 C70.8913869,40 60.2671553,44.7498449 60.2671553,44.7498449" id="Fill-9-Copy" fill="#002FF7"></path>
                            <path d="M67.1387384,41.6462802 C67.1387384,41.6462802 64.4830159,63 82.4099421,63 C100.33527,63 101,44.8823529 101,44.8823529 C101,44.8823529 92.3681027,41 82.4099421,41 C72.4501835,41 67.1387384,41.6462802 67.1387384,41.6462802" id="Fill-11-Copy" fill="#002FF7"></path>
                            <path d="M100,45.7721079 C100,49.7635586 96.642539,53 92.5,53 C88.3589796,53 85,49.7635586 85,45.7721079 C85,41.7806572 86.2391172,41 90.3816562,41 C94.5226767,41 100,41.7806572 100,45.7721079" id="Fill-15-Copy" fill="#FFFFFF"></path>
                            <path d="M32.9691838,67.3038655 C36.0956377,70.0585998 39.6886431,72.8167254 43.6882186,75.3898952 C54.7787777,82.5251253 66.7740807,86.8695835 79.2341651,87.075392 C96.9767876,87.3677274 110.357436,83.2960155 120.038412,76.37146 C123.269883,74.0600712 125.838848,71.5948405 127.811254,69.1439042 C128.335254,68.4927745 128.784904,67.8816279 129.163822,67.320305 C128.525226,66.503001 127.775397,65.5988219 126.916623,64.628195 C124.240201,61.6031788 121.082592,58.5740137 117.469238,55.7485688 C107.192358,47.7126104 95.3721771,42.909921 82.1549975,42.909921 C68.8583757,42.909921 56.0608925,47.4253866 44.2429077,54.9745177 C40.0882498,57.6284437 36.3569257,60.4729992 33.1106928,63.3141255 C32.2797357,64.0413851 31.5259814,64.7292287 30.8524074,65.3680199 C31.4862535,65.9715936 32.192725,66.6197237 32.9691838,67.3038655 Z M26.6858003,62.5441359 C27.5876534,61.6614901 28.6433338,60.6817646 29.8459296,59.6292442 C33.2700934,56.6323914 37.1966941,53.638968 41.571972,50.8441135 C54.1252323,42.8253008 67.8008331,38 82.1549975,38 C96.588604,38 109.436979,43.2204577 120.523799,51.8897445 C124.38774,54.9111356 127.760227,58.1464374 130.626372,61.3858882 C131.633543,62.5242399 132.507226,63.5843647 133.245311,64.5402307 C133.69681,65.1249513 134.007973,65.5528878 134.176564,65.798035 L135,66.9953888 L134.342205,68.290002 C133.912979,69.1347673 133.045376,70.500557 131.669094,72.2107433 C129.423809,75.0007633 126.531283,77.7764888 122.924038,80.3566592 C112.370441,87.9053786 97.9473185,92.2943139 79.1521799,91.9846368 C65.6605211,91.7617893 52.8110206,87.1079579 41.0037808,79.5116436 C36.7838529,76.7967077 32.9959948,73.8890059 29.6920833,70.9779127 C28.531635,69.9554359 27.5127898,69.0036137 26.6422289,68.1460111 C26.1112739,67.6229595 25.7424109,67.241579 25.5424107,67.0254183 L24,65.3583774 L25.5477193,63.6962039 C25.7543191,63.4743261 26.1360129,63.0822141 26.6858003,62.5441359 Z" id="Stroke-7-Copy" fill="#002FF7" fill-rule="nonzero"></path>
                            <path d="M30.5867775,68 C30.7409055,67.8270952 31.0660443,67.4781918 31.5548348,66.9784855 C32.3837897,66.1310181 33.3619399,65.1827766 34.4818385,64.1589391 C37.6932461,61.2229954 41.3845409,58.2835079 45.4946279,55.5410119 C57.1858304,47.739942 69.8460232,43.0737808 83,43.0737808 L83,38 C68.7998259,38 55.2709358,42.9863366 42.8523458,51.2727629 C38.5240055,54.1608906 34.6395291,57.2542142 31.2520994,60.3510815 C30.062405,61.4387279 29.0180498,62.4511501 28.1258717,63.3632526 C27.5819824,63.9192882 27.2043834,64.3244862 27,64.5537688 L30.5867775,68 Z" id="Stroke-13-Copy" fill="#002FF7" fill-rule="nonzero"></path>
                            <path d="M82,42.9794539 C94.95767,42.9794539 106.54576,47.8498716 116.620844,55.9991474 C120.163241,58.8644311 123.258843,61.9363065 125.882705,65.0039737 C126.797115,66.0730485 127.585532,67.0626332 128.245083,67.9461867 C128.632333,68.464959 128.885478,68.8250862 129.001767,69 L133,66.1900119 C132.834718,65.9414057 132.529664,65.5074329 132.087029,64.9144653 C131.363436,63.9451189 130.506908,62.8700436 129.519513,61.7156385 C126.709646,58.430506 123.403381,55.1495816 119.615312,52.0855854 C108.746207,43.2940619 96.150148,38 82,38 L82,42.9794539 Z" id="Stroke-17-Copy" fill="#002FF7" fill-rule="nonzero"></path>
                            <path d="M98,168.657212 C98,184.949128 89.9415471,191 79.9991956,191 C70.0584529,191 62,184.949128 62,168.657212 C62,152.365295 79.9991956,132 79.9991956,132 C79.9991956,132 98,152.365295 98,168.657212" id="Fill-19-Copy" fill="#002FF7"></path>
                        </g>
                    </g>
                </g>
            </g>
        </g>
    </g>
</svg>