<?xml version="1.0" encoding="utf-8"?>

<svg version="1.1" id="Layer_1" xmlns="http://www.w3.org/2000/svg" xmlns:xlink="http://www.w3.org/1999/xlink" x="0px" y="0px"
	 viewBox="0 0 252.3 195.6" style="enable-background:new 0 0 252.3 195.6;" xml:space="preserve">
<style type="text/css">
	.st0{fill:#F9D3D9;}
	.st1{filter:url(#Adobe_OpacityMaskFilter);}
	.st2{fill:#FFFFFF;}
	.st3{mask:url(#mask-2);}
	.st4{fill:#EA1C24;}
</style>
<g id="Page-1">
	<g id="Group-Copy" transform="translate(0.000000, 1.000000)">
		<g id="Mask">
			<rect id="path-1_1_" x="-0.9" y="-0.7" class="st0" width="254" height="196"/>
		</g>
		<defs>
			<filter id="Adobe_OpacityMaskFilter" filterUnits="userSpaceOnUse" x="-109.9" y="-98.7" width="416" height="331">
				<feColorMatrix  type="matrix" values="1 0 0 0 0  0 1 0 0 0  0 0 1 0 0  0 0 0 1 0"/>
			</filter>
		</defs>
		<mask maskUnits="userSpaceOnUse" x="-109.9" y="-98.7" width="416" height="331" id="mask-2">
			<g class="st1">
				<rect id="path-1" x="-0.9" y="-0.7" class="st2" width="254" height="196"/>
			</g>
		</mask>
		<g id="Group" class="st3">
			<g transform="translate(-109.000000, -98.000000)">
				<g id="Group-15-Copy-2" transform="translate(0.000000, 196.000000)">
					<path id="Stroke-3-Copy" class="st4" d="M99.8,1.1c12.6-3.8,26.6-1.9,41.5,7.4c24,14.8,26.6,54.8,5.3,79.6
						c-8.2,9.5-22.2,20.2-39.6,31.1c-6.2,3.9-12.4,7.5-18.1,10.7c-5.7,3.2-7.5,4.2-8.6,4.4c-1,0.2-2.1-0.4-9.2-4.4
						c-5.7-3.1-11.9-6.8-18.1-10.7c-17.4-10.9-31.4-21.6-39.6-31.1C-7.7,63.3-5.1,23.4,18.9,8.5c15-9.3,28.9-11.2,41.5-7.4
						c7.9,2.4,14.5,6.8,19.7,11.9C85.3,7.9,91.9,3.5,99.8,1.1z M138.8,12.7C125,4.2,112.5,2.5,101.2,5.9c-7.9,2.4-14.4,7-19.3,12.4
						l-1.8,2l-1.8-2C73.4,12.9,66.9,8.3,59,5.9c-11.3-3.4-23.7-1.7-37.5,6.9C0.3,25.9-2.1,62.2,17.3,85c7.8,9,21.4,19.5,38.4,30.1
						c6.1,3.8,12.3,7.4,17.8,10.5c2.1,1.2,4,2.2,5.5,3c0.6,0.3,1.1,0.6,1.5,0.8c-2.2-1.1-0.2-0.2-1.3,0.1l0.8-0.3l0.8,0.3
						c-1-0.3,0.9-1.2-1.3-0.1c0.4-0.2,0.9-0.4,1.5-0.8c1.5-0.8,3.4-1.8,5.5-3c5.6-3.1,11.7-6.7,17.8-10.5
						c17-10.7,30.7-21.1,38.4-30.1C162.4,62.2,160,25.9,138.8,12.7z"/>
					<path id="Stroke-7-Copy" class="st4" d="M32.1,66.6c3.1,2.8,6.7,5.5,10.7,8.1c11.1,7.1,23.1,11.5,35.5,11.7
						c17.7,0.3,31.1-3.8,40.8-10.7c3.2-2.3,5.8-4.8,7.8-7.2c0.5-0.7,1-1.3,1.4-1.8c-0.6-0.8-1.4-1.7-2.2-2.7c-2.7-3-5.8-6.1-9.4-8.9
						c-10.3-8-22.1-12.8-35.3-12.8c-13.3,0-26.1,4.5-37.9,12.1c-4.2,2.7-7.9,5.5-11.1,8.3c-0.8,0.7-1.6,1.4-2.3,2.1
						C30.6,65.3,31.3,65.9,32.1,66.6z M25.8,61.8c0.9-0.9,2-1.9,3.2-2.9c3.4-3,7.4-6,11.7-8.8c12.6-8,26.2-12.8,40.6-12.8
						c14.4,0,27.3,5.2,38.4,13.9c3.9,3,7.2,6.3,10.1,9.5c1,1.1,1.9,2.2,2.6,3.2c0.5,0.6,0.8,1,0.9,1.3l0.8,1.2l-0.7,1.3
						c-0.4,0.8-1.3,2.2-2.7,3.9c-2.2,2.8-5.1,5.6-8.7,8.1c-10.6,7.5-25,11.9-43.8,11.6C64.8,91.1,52,86.4,40.1,78.8
						c-4.2-2.7-8-5.6-11.3-8.5c-1.2-1-2.2-2-3-2.8c-0.5-0.5-0.9-0.9-1.1-1.1l-1.5-1.7l1.5-1.7C24.9,62.8,25.3,62.4,25.8,61.8z"/>
					<path id="Stroke-17-Copy" class="st4" d="M81.1,42.3c13,0,24.5,4.9,34.6,13c3.5,2.9,6.6,5.9,9.3,9c0.9,1.1,1.7,2.1,2.4,2.9
						c0.4,0.5,0.6,0.9,0.8,1.1l4-2.8c-0.2-0.2-0.5-0.7-0.9-1.3c-0.7-1-1.6-2-2.6-3.2c-2.8-3.3-6.1-6.6-9.9-9.6
						c-10.9-8.8-23.5-14.1-37.6-14.1V42.3z"/>
				</g>
				<g id="Group-15-Copy-2_1_">
					<path id="Stroke-3-Copy_1_" class="st4" d="M99.8,1.1c12.6-3.8,26.6-1.9,41.5,7.4c24,14.8,26.6,54.8,5.3,79.6
						c-8.2,9.5-22.2,20.2-39.6,31.1c-6.2,3.9-12.4,7.5-18.1,10.7c-5.7,3.2-7.5,4.2-8.6,4.4c-1,0.2-2.1-0.4-9.2-4.4
						c-5.7-3.1-11.9-6.8-18.1-10.7c-17.4-10.9-31.4-21.6-39.6-31.1C-7.7,63.3-5.1,23.4,18.9,8.5c15-9.3,28.9-11.2,41.5-7.4
						c7.9,2.4,14.5,6.8,19.7,11.9C85.3,7.9,91.9,3.5,99.8,1.1z M138.8,12.7C125,4.2,112.5,2.5,101.2,5.9c-7.9,2.4-14.4,7-19.3,12.4
						l-1.8,2l-1.8-2C73.4,12.9,66.9,8.3,59,5.9c-11.3-3.4-23.7-1.7-37.5,6.9C0.3,25.9-2.1,62.2,17.3,85c7.8,9,21.4,19.5,38.4,30.1
						c6.1,3.8,12.3,7.4,17.8,10.5c2.1,1.2,4,2.2,5.5,3c0.6,0.3,1.1,0.6,1.5,0.8c-2.2-1.1-0.2-0.2-1.3,0.1l0.8-0.3l0.8,0.3
						c-1-0.3,0.9-1.2-1.3-0.1c0.4-0.2,0.9-0.4,1.5-0.8c1.5-0.8,3.4-1.8,5.5-3c5.6-3.1,11.7-6.7,17.8-10.5
						c17-10.7,30.7-21.1,38.4-30.1C162.4,62.2,160,25.9,138.8,12.7z"/>
				</g>
				<g id="Group-15-Copy-2_2_" transform="translate(254.000000, 196.000000)">
					<path id="Stroke-3-Copy_2_" class="st4" d="M99.8,1.1c12.6-3.8,26.6-1.9,41.5,7.4c24,14.8,26.6,54.8,5.3,79.6
						c-8.2,9.5-22.2,20.2-39.6,31.1c-6.2,3.9-12.4,7.5-18.1,10.7c-5.7,3.2-7.5,4.2-8.6,4.4c-1,0.2-2.1-0.4-9.2-4.4
						c-5.7-3.1-11.9-6.8-18.1-10.7c-17.4-10.9-31.4-21.6-39.6-31.1C-7.7,63.3-5.1,23.4,18.9,8.5c15-9.3,28.9-11.2,41.5-7.4
						c7.9,2.4,14.5,6.8,19.7,11.9C85.3,7.9,91.9,3.5,99.8,1.1z M138.8,12.7C125,4.2,112.5,2.5,101.2,5.9c-7.9,2.4-14.4,7-19.3,12.4
						l-1.8,2l-1.8-2C73.4,12.9,66.9,8.3,59,5.9c-11.3-3.4-23.7-1.7-37.5,6.9C0.3,25.9-2.1,62.2,17.3,85c7.8,9,21.4,19.5,38.4,30.1
						c6.1,3.8,12.3,7.4,17.8,10.5c2.1,1.2,4,2.2,5.5,3c0.6,0.3,1.1,0.6,1.5,0.8c-2.2-1.1-0.2-0.2-1.3,0.1l0.8-0.3l0.8,0.3
						c-1-0.3,0.9-1.2-1.3-0.1c0.4-0.2,0.9-0.4,1.5-0.8c1.5-0.8,3.4-1.8,5.5-3c5.6-3.1,11.7-6.7,17.8-10.5
						c17-10.7,30.7-21.1,38.4-30.1C162.4,62.2,160,25.9,138.8,12.7z"/>
					<path id="Fill-9-Copy" class="st4" d="M59.4,44c0,0-4.2,26.6,20.3,30.9c24.5,4.3,25.4-29,25.4-29S94.1,39.3,82,39.3
						C70,39.3,59.4,44,59.4,44"/>
					<path id="Fill-11-Copy" class="st4" d="M66.3,40.9c0,0-2.7,21.4,15.3,21.4c17.9,0,18.6-18.1,18.6-18.1s-8.6-3.9-18.6-3.9
						C71.6,40.3,66.3,40.9,66.3,40.9"/>
					<path id="Fill-15-Copy" class="st0" d="M99.1,45.1c0,4-3.4,7.2-7.5,7.2c-4.1,0-7.5-3.2-7.5-7.2s1.2-4.8,5.4-4.8
						C93.7,40.3,99.1,41.1,99.1,45.1"/>
					<path id="Stroke-7-Copy_1_" class="st4" d="M32.1,66.6c3.1,2.8,6.7,5.5,10.7,8.1c11.1,7.1,23.1,11.5,35.5,11.7
						c17.7,0.3,31.1-3.8,40.8-10.7c3.2-2.3,5.8-4.8,7.8-7.2c0.5-0.7,1-1.3,1.4-1.8c-0.6-0.8-1.4-1.7-2.2-2.7c-2.7-3-5.8-6.1-9.4-8.9
						c-10.3-8-22.1-12.8-35.3-12.8c-13.3,0-26.1,4.5-37.9,12.1c-4.2,2.7-7.9,5.5-11.1,8.3c-0.8,0.7-1.6,1.4-2.3,2.1
						C30.6,65.3,31.3,65.9,32.1,66.6z M25.8,61.8c0.9-0.9,2-1.9,3.2-2.9c3.4-3,7.4-6,11.7-8.8c12.6-8,26.2-12.8,40.6-12.8
						c14.4,0,27.3,5.2,38.4,13.9c3.9,3,7.2,6.3,10.1,9.5c1,1.1,1.9,2.2,2.6,3.2c0.5,0.6,0.8,1,0.9,1.3l0.8,1.2l-0.7,1.3
						c-0.4,0.8-1.3,2.2-2.7,3.9c-2.2,2.8-5.1,5.6-8.7,8.1c-10.6,7.5-25,11.9-43.8,11.6C64.8,91.1,52,86.4,40.1,78.8
						c-4.2-2.7-8-5.6-11.3-8.5c-1.2-1-2.2-2-3-2.8c-0.5-0.5-0.9-0.9-1.1-1.1l-1.5-1.7l1.5-1.7C24.9,62.8,25.3,62.4,25.8,61.8z"/>
					<path id="Stroke-13-Copy" class="st4" d="M29.7,67.3c0.2-0.2,0.5-0.5,1-1c0.8-0.8,1.8-1.8,2.9-2.8c3.2-2.9,6.9-5.9,11-8.6
						C56.3,47,69,42.4,82.1,42.4v-5.1c-14.2,0-27.7,5-40.1,13.3c-4.3,2.9-8.2,6-11.6,9.1c-1.2,1.1-2.2,2.1-3.1,3
						c-0.5,0.6-0.9,1-1.1,1.2L29.7,67.3z"/>
					<path id="Stroke-17-Copy_1_" class="st4" d="M81.1,42.3c13,0,24.5,4.9,34.6,13c3.5,2.9,6.6,5.9,9.3,9c0.9,1.1,1.7,2.1,2.4,2.9
						c0.4,0.5,0.6,0.9,0.8,1.1l4-2.8c-0.2-0.2-0.5-0.7-0.9-1.3c-0.7-1-1.6-2-2.6-3.2c-2.8-3.3-6.1-6.6-9.9-9.6
						c-10.9-8.8-23.5-14.1-37.6-14.1V42.3z"/>
				</g>
				<g id="Group-15-Copy-2_3_" transform="translate(254.000000, 0.000000)">
					<path id="Stroke-3-Copy_3_" class="st4" d="M99.8,1.1c12.6-3.8,26.6-1.9,41.5,7.4c24,14.8,26.6,54.8,5.3,79.6
						c-8.2,9.5-22.2,20.2-39.6,31.1c-6.2,3.9-12.4,7.5-18.1,10.7c-5.7,3.2-7.5,4.2-8.6,4.4c-1,0.2-2.1-0.4-9.2-4.4
						c-5.7-3.1-11.9-6.8-18.1-10.7c-17.4-10.9-31.4-21.6-39.6-31.1C-7.7,63.3-5.1,23.4,18.9,8.5c15-9.3,28.9-11.2,41.5-7.4
						c7.9,2.4,14.5,6.8,19.7,11.9C85.3,7.9,91.9,3.5,99.8,1.1z M138.8,12.7C125,4.2,112.5,2.5,101.2,5.9c-7.9,2.4-14.4,7-19.3,12.4
						l-1.8,2l-1.8-2C73.4,12.9,66.9,8.3,59,5.9c-11.3-3.4-23.7-1.7-37.5,6.9C0.3,25.9-2.1,62.2,17.3,85c7.8,9,21.4,19.5,38.4,30.1
						c6.1,3.8,12.3,7.4,17.8,10.5c2.1,1.2,4,2.2,5.5,3c0.6,0.3,1.1,0.6,1.5,0.8c-2.2-1.1-0.2-0.2-1.3,0.1l0.8-0.3l0.8,0.3
						c-1-0.3,0.9-1.2-1.3-0.1c0.4-0.2,0.9-0.4,1.5-0.8c1.5-0.8,3.4-1.8,5.5-3c5.6-3.1,11.7-6.7,17.8-10.5
						c17-10.7,30.7-21.1,38.4-30.1C162.4,62.2,160,25.9,138.8,12.7z"/>
					<path id="Fill-19-Copy" class="st4" d="M97.1,168c0,16.3-8.1,22.3-18,22.3c-9.9,0-18-6.1-18-22.3s18-36.7,18-36.7
						S97.1,151.7,97.1,168"/>
				</g>
				<g id="Group-15-Copy-5" transform="translate(127.000000, 99.000000)">
					<path id="Stroke-3-Copy_4_" class="st4" d="M99.8,1.1c12.6-3.8,26.6-1.9,41.5,7.4c24,14.8,26.6,54.8,5.3,79.6
						c-8.2,9.5-22.2,20.2-39.6,31.1c-6.2,3.9-12.4,7.5-18.1,10.7c-5.7,3.2-7.5,4.2-8.6,4.4c-1,0.2-2.1-0.4-9.2-4.4
						c-5.7-3.1-11.9-6.8-18.1-10.7c-17.4-10.9-31.4-21.6-39.6-31.1C-7.7,63.3-5.1,23.4,18.9,8.5c15-9.3,28.9-11.2,41.5-7.4
						c7.9,2.4,14.5,6.8,19.7,11.9C85.3,7.9,91.9,3.5,99.8,1.1z M138.8,12.7C125,4.2,112.5,2.5,101.2,5.9c-7.9,2.4-14.4,7-19.3,12.4
						l-1.8,2l-1.8-2C73.4,12.9,66.9,8.3,59,5.9c-11.3-3.4-23.7-1.7-37.5,6.9C0.3,25.9-2.1,62.2,17.3,85c7.8,9,21.4,19.5,38.4,30.1
						c6.1,3.8,12.3,7.4,17.8,10.5c2.1,1.2,4,2.2,5.5,3c0.6,0.3,1.1,0.6,1.5,0.8c-2.2-1.1-0.2-0.2-1.3,0.1l0.8-0.3l0.8,0.3
						c-1-0.3,0.9-1.2-1.3-0.1c0.4-0.2,0.9-0.4,1.5-0.8c1.5-0.8,3.4-1.8,5.5-3c5.6-3.1,11.7-6.7,17.8-10.5
						c17-10.7,30.7-21.1,38.4-30.1C162.4,62.2,160,25.9,138.8,12.7z"/>
					<path id="Fill-9-Copy_1_" class="st4" d="M59.4,43c0,0-4.2,26.6,20.3,30.9c24.5,4.3,25.4-29,25.4-29S94.1,38.3,82,38.3
						C70,38.3,59.4,43,59.4,43"/>
					<path id="Fill-15-Copy_1_" class="st0" d="M99.1,45.1c0,4-3.4,7.2-7.5,7.2c-4.1,0-7.5-3.2-7.5-7.2s1.2-4.8,5.4-4.8
						C93.7,40.3,99.1,41.1,99.1,45.1"/>
					<path id="Stroke-7-Copy_2_" class="st4" d="M32.1,66.6c3.1,2.8,6.7,5.5,10.7,8.1c11.1,7.1,23.1,11.5,35.5,11.7
						c17.7,0.3,31.1-3.8,40.8-10.7c3.2-2.3,5.8-4.8,7.8-7.2c0.5-0.7,1-1.3,1.4-1.8c-0.6-0.8-1.4-1.7-2.2-2.7c-2.7-3-5.8-6.1-9.4-8.9
						c-10.3-8-22.1-12.8-35.3-12.8c-13.3,0-26.1,4.5-37.9,12.1c-4.2,2.7-7.9,5.5-11.1,8.3c-0.8,0.7-1.6,1.4-2.3,2.1
						C30.6,65.3,31.3,65.9,32.1,66.6z M25.8,61.8c0.9-0.9,2-1.9,3.2-2.9c3.4-3,7.4-6,11.7-8.8c12.6-8,26.2-12.8,40.6-12.8
						c14.4,0,27.3,5.2,38.4,13.9c3.9,3,7.2,6.3,10.1,9.5c1,1.1,1.9,2.2,2.6,3.2c0.5,0.6,0.8,1,0.9,1.3l0.8,1.2l-0.7,1.3
						c-0.4,0.8-1.3,2.2-2.7,3.9c-2.2,2.8-5.1,5.6-8.7,8.1c-10.6,7.5-25,11.9-43.8,11.6C64.8,91.1,52,86.4,40.1,78.8
						c-4.2-2.7-8-5.6-11.3-8.5c-1.2-1-2.2-2-3-2.8c-0.5-0.5-0.9-0.9-1.1-1.1l-1.5-1.7l1.5-1.7C24.9,62.8,25.3,62.4,25.8,61.8z"/>
					<path id="Stroke-13-Copy_1_" class="st4" d="M29.7,67.3c0.2-0.2,0.5-0.5,1-1c0.8-0.8,1.8-1.8,2.9-2.8c3.2-2.9,6.9-5.9,11-8.6
						C56.3,47,69,42.4,82.1,42.4v-5.1c-14.2,0-27.7,5-40.1,13.3c-4.3,2.9-8.2,6-11.6,9.1c-1.2,1.1-2.2,2.1-3.1,3
						c-0.5,0.6-0.9,1-1.1,1.2L29.7,67.3z"/>
					<path id="Stroke-17-Copy_2_" class="st4" d="M81.1,42.3c13,0,24.5,4.9,34.6,13c3.5,2.9,6.6,5.9,9.3,9c0.9,1.1,1.7,2.1,2.4,2.9
						c0.4,0.5,0.6,0.9,0.8,1.1l4-2.8c-0.2-0.2-0.5-0.7-0.9-1.3c-0.7-1-1.6-2-2.6-3.2c-2.8-3.3-6.1-6.6-9.9-9.6
						c-10.9-8.8-23.5-14.1-37.6-14.1V42.3z"/>
					<path id="Fill-19-Copy_1_" class="st4" d="M97.1,168c0,16.3-8.1,22.3-18,22.3c-9.9,0-18-6.1-18-22.3s18-36.7,18-36.7
						S97.1,151.7,97.1,168"/>
				</g>
			</g>
		</g>
	</g>
</g>
</svg>
